<?xml version="1.0" encoding="UTF-8" standalone="no"?>
<svg
   xmlns:dc="http://purl.org/dc/elements/1.1/"
   xmlns:cc="http://creativecommons.org/ns#"
   xmlns:rdf="http://www.w3.org/1999/02/22-rdf-syntax-ns#"
   xmlns:svg="http://www.w3.org/2000/svg"
   xmlns="http://www.w3.org/2000/svg"
   version="1.1"
   id="svg3369"
   viewBox="0 0 10.54347 15.97304"
   height="4.507947mm"
   width="2.9756014mm">
  <defs
     id="defs3371" />
  <metadata
     id="metadata3374">
    <rdf:RDF>
      <cc:Work
         rdf:about="">
        <dc:format>image/svg+xml</dc:format>
        <dc:type
           rdf:resource="http://purl.org/dc/dcmitype/StillImage" />
        <dc:title></dc:title>
      </cc:Work>
    </rdf:RDF>
  </metadata>
  <g
     transform="translate(-768.78571,-930.10344)"
     id="layer1">
    <path
       d="M 5.2670877,12.538437 C 3.3699336,10.672704 1.732618,9.062238 1.6286085,8.9596233 L 1.4395004,8.7730509 2.1053825,8.1022667 C 2.4716177,7.7333353 4.0837829,6.0819818 5.6879718,4.4325921 7.2921607,2.7832024 8.6146941,1.4337017 8.6269349,1.4337017 c 0.012241,0 0.4394596,0.3772416 0.9493749,0.8383145 L 10.503429,3.1103308 9.1198932,4.5132922 C 8.3589487,5.2849209 7.1309299,6.5306142 6.3909629,7.2814998 L 5.0455682,8.6467459 5.9570238,9.577752 c 0.5013005,0.512054 1.7196938,1.748251 2.7075403,2.747105 l 1.7960839,1.816098 -0.232197,0.243932 c -0.127708,0.134163 -0.5201509,0.53685 -0.8720947,0.894862 L 8.7164584,15.930678 5.2670877,12.538437 Z M 1.72007,7.76531 8.60174,0.69424 11.25339,3.09335 5.76068,8.64919 11.19025,14.1419 8.72801,16.66728 0.70992,8.77546 Z"
       style="fill:#000000;fill-opacity:1"
       transform="translate(768.07579,929.4092)"
       id="path3394" />
  </g>
</svg>
